<svg class="size-56 text-muted-foreground" viewBox="0 0 648 220" fill="currentColor" xmlns="http://www.w3.org/2000/svg">
<path d="M251.871 211.095V133.335H265.887V211.095H251.871Z"/>
<path d="M277.924 211.095V133.335H287.812L306.725 177.687V133.335H318.437V211.095H309.029L290.021 164.631V211.095H277.924Z"/>
<path d="M330.237 211.095V133.335H340.125L359.037 177.687V133.335H370.749V211.095H361.341L342.333 164.631V211.095H330.237Z"/>
<path d="M69.1669 202.604C66.3313 206.317 63.2498 208.876 59.9222 210.28C56.5438 211.646 52.9703 211.897 49.2017 211.032C45.4331 210.167 41.4559 208.257 37.2703 205.302L42.7626 194.156C45.2309 195.88 47.5554 197.212 49.7361 198.153C51.9556 199.043 53.9431 199.393 55.6984 199.203C57.4417 198.924 58.9348 197.971 60.1778 196.343C61.5762 194.512 62.0326 192.807 61.5472 191.228C61.0108 189.611 59.9034 188.161 58.2248 186.879C55.529 184.82 52.8503 183.741 50.1887 183.641C47.5271 183.541 44.5547 183.848 41.2716 184.562L28.4618 187.1C24.9095 187.85 21.484 188.013 18.1852 187.587C14.8743 187.072 11.515 185.513 8.10706 182.91C3.2241 179.181 0.547776 174.883 0.0780903 170.015C-0.391598 165.146 1.25748 160.245 5.02533 155.311C7.23942 152.412 9.54228 150.346 11.9339 149.112C14.2746 147.84 16.6607 147.246 19.0921 147.331C21.5622 147.365 24.0283 147.88 26.4901 148.874C28.9011 149.829 31.2839 151.085 33.6384 152.642L27.9755 163.537C25.9649 162.163 24.0608 161.071 22.2629 160.261C20.504 159.401 18.8619 159.073 17.3369 159.278C15.8507 159.431 14.4861 160.322 13.2431 161.95C11.9613 163.628 11.5303 165.352 11.9501 167.122C12.3579 168.803 13.3756 170.265 15.0033 171.508C17.0887 173.1 19.1483 173.989 21.1819 174.173C23.1647 174.318 25.4897 174.12 28.1569 173.58L40.8321 171.06C44.9106 170.148 49.0793 169.909 53.3381 170.343C57.5848 170.687 61.7428 172.413 65.8119 175.521C68.762 177.774 70.8766 180.435 72.1555 183.506C73.4733 186.525 73.9 189.71 73.4357 193.06C72.9593 196.32 71.5364 199.501 69.1669 202.604Z"/>
<path d="M93.9111 172.554L47.1483 124.16L38.2427 132.765L30.9714 125.24L58.8619 98.29L66.1332 105.815L57.3656 114.287L104.128 162.681L93.9111 172.554Z"/>
<path d="M117.84 149.665L85.794 77.1288L98.1968 68.3973L155.676 123.029L144.922 130.6L132.076 117.689L121.008 125.481L128.751 141.984L117.84 149.665ZM116.99 117.273L125.625 111.194L102.519 87.544L116.99 117.273Z"/>
<path d="M172.806 114.233L143.018 53.8885L131.913 59.3702L127.282 49.9872L162.059 32.8196L166.691 42.2026L155.758 47.5993L185.547 107.943L172.806 114.233Z"/>
<path d="M207.345 98.7217L181.429 25.4073L194.644 20.7361L220.56 94.0505L207.345 98.7217Z"/>
<path d="M256.234 85.6938C250.841 86.7951 246.341 86.6691 242.733 85.3156C239.125 83.9622 236.248 81.5451 234.1 78.0645C231.952 74.5839 230.353 70.2727 229.303 65.1309L223.482 36.6311C222.432 31.4893 222.225 26.959 222.862 23.0403C223.486 19.059 225.198 15.7698 227.999 13.1728C230.8 10.5758 234.897 8.7266 240.29 7.62525C245.808 6.49828 250.333 6.58658 253.866 7.89013C257.46 9.18088 260.326 11.5352 262.461 14.9531C264.646 18.2955 266.263 22.5376 267.313 27.6794L273.153 56.2732C274.19 61.3524 274.372 65.9204 273.698 69.9773C273.074 73.9587 271.375 77.3105 268.599 80.033C265.874 82.6799 261.752 84.5668 256.234 85.6938ZM254.14 75.4414C256.46 74.9676 258.051 74.1201 258.912 72.8991C259.836 71.6653 260.306 70.1321 260.324 68.2995C260.342 66.4669 260.139 64.516 259.717 62.4467L252.551 27.3629C252.116 25.2309 251.537 23.3568 250.815 21.7406C250.093 20.1244 249.072 18.9612 247.751 18.2512C246.48 17.4656 244.685 17.3097 242.365 17.7836C240.17 18.2318 238.611 19.0728 237.687 20.3066C236.75 21.4777 236.267 22.9482 236.236 24.7181C236.206 26.488 236.408 28.4389 236.844 30.5709L244.009 65.6547C244.431 67.724 244.979 69.6045 245.651 71.2962C246.386 72.9752 247.42 74.201 248.754 74.9738C250.087 75.7466 251.883 75.9024 254.14 75.4414Z"/>
<path d="M291.876 78.7119L290.006 0.974422L299.891 0.736589L319.864 44.6209L318.798 0.281705L330.506 0L332.376 77.7375L322.971 77.9638L302.851 31.9704L303.969 78.421L291.876 78.7119Z"/>
<path d="M375.054 82.0935L393.806 6.62843L407.501 10.0316L399.653 41.6151L415.119 45.4582L422.967 13.8747L436.663 17.2779L417.91 92.7429L404.215 89.3397L412.688 55.2407L397.222 51.3976L388.749 85.4967L375.054 82.0935Z"/>
<path d="M450.926 107.414C445.916 105.135 442.35 102.387 440.227 99.1717C438.104 95.9558 437.197 92.3088 437.506 88.2304C437.815 84.1521 439.056 79.7245 441.229 74.9476L453.275 48.4711C455.448 43.6943 457.944 39.908 460.763 37.1123C463.608 34.2584 466.927 32.6044 470.72 32.1502C474.512 31.696 478.914 32.6085 483.923 34.8879C489.05 37.2202 492.659 39.9519 494.75 43.0829C496.899 46.2405 497.833 49.8293 497.551 53.8494C497.353 57.8377 496.168 62.2203 493.995 66.9972L481.909 93.5611C479.762 98.2797 477.224 102.082 474.294 104.967C471.448 107.821 468.103 109.534 464.257 110.104C460.496 110.643 456.053 109.747 450.926 107.414ZM455.26 97.8898C457.415 98.8704 459.2 99.12 460.614 98.6385C462.087 98.1835 463.369 97.2199 464.461 95.7478C465.552 94.2758 466.536 92.5785 467.41 90.6561L482.239 58.0629C483.14 56.0822 483.774 54.226 484.14 52.4941C484.506 50.7622 484.363 49.2208 483.712 47.8699C483.146 46.4873 481.785 45.3057 479.63 44.325C477.591 43.3974 475.835 43.1611 474.363 43.6161C472.916 44.0128 471.661 44.9181 470.596 46.332C469.531 47.7458 468.547 49.4431 467.646 51.4237L452.818 84.0169C451.943 85.9393 451.28 87.7824 450.829 89.546C450.437 91.3361 450.553 92.9358 451.177 94.3449C451.802 95.754 453.163 96.9357 455.26 97.8898Z"/>
<path d="M500.761 135.673C496.031 132.386 492.955 128.962 491.533 125.401C490.111 121.841 490.014 118.11 491.244 114.211C492.474 110.311 494.641 106.128 497.746 101.66L527.77 58.4619L539.122 66.3516L508.166 110.89C506.778 112.887 505.594 114.871 504.615 116.84C503.672 118.757 503.29 120.596 503.469 122.357C503.737 124.102 504.844 125.65 506.788 127.002C508.838 128.426 510.674 128.923 512.298 128.493C514.011 128.047 515.602 127.048 517.07 125.497C518.627 123.929 520.1 122.147 521.488 120.15L552.444 75.611L563.717 83.4459L533.692 126.645C530.587 131.112 527.421 134.601 524.195 137.113C520.968 139.624 517.438 140.834 513.605 140.742C509.825 140.687 505.543 138.997 500.761 135.673Z"/>
<path d="M543.454 171.199C540.124 167.922 537.97 164.546 536.991 161.069C536.057 157.547 536.255 153.97 537.583 150.338C538.911 146.707 541.302 142.999 544.756 139.215L555.13 146.055C553.112 148.289 551.5 150.429 550.294 152.475C549.135 154.567 548.539 156.495 548.509 158.26C548.568 160.025 549.328 161.625 550.788 163.061C552.43 164.677 554.065 165.343 555.692 165.058C557.363 164.728 558.94 163.81 560.421 162.304C562.8 159.886 564.205 157.363 564.636 154.735C565.068 152.106 565.134 149.119 564.835 145.772L563.915 132.746C563.614 129.128 563.88 125.709 564.714 122.489C565.638 119.268 567.604 116.13 570.611 113.073C574.92 108.694 579.519 106.574 584.408 106.716C589.297 106.857 593.954 109.105 598.379 113.459C600.98 116.017 602.743 118.56 603.668 121.087C604.639 123.568 604.93 126.009 604.542 128.411C604.2 130.858 603.382 133.24 602.089 135.559C600.84 137.832 599.297 140.039 597.458 142.181L587.355 135.203C588.969 133.38 590.29 131.627 591.317 129.944C592.39 128.306 592.92 126.718 592.908 125.179C592.941 123.685 592.228 122.22 590.768 120.784C589.262 119.303 587.605 118.66 585.797 118.856C584.078 119.051 582.501 119.878 581.065 121.338C579.224 123.208 578.086 125.141 577.65 127.136C577.258 129.085 577.164 131.417 577.367 134.13L578.286 147.021C578.682 151.181 578.399 155.347 577.438 159.519C576.566 163.689 574.335 167.599 570.744 171.249C568.141 173.895 565.236 175.661 562.03 176.547C558.87 177.478 555.657 177.504 552.391 176.625C549.216 175.746 546.237 173.937 543.454 171.199Z"/>
<path d="M565.519 193.277L627.742 146.641L647.318 172.759L639.328 178.747L628.274 163.998L610.375 177.413L619.069 189.012L611.157 194.943L602.463 183.343L581.876 198.773L593.045 213.676L585.21 219.549L565.519 193.277Z"/>
</svg>
