<svg class="size-40" fill="fillCurrent" xmlns="http://www.w3.org/2000/svg" xml:space="preserve" id="Layer_1" x="0" y="0" viewBox="0 0 482 368">
	<path d="M114.1 310.3h9.9c4.5 0 7.4 2.8 7.4 6.2.1 2.4-1.2 4.6-3.4 5.5 2.7 1 4.7 2.9 4.7 6.4 0 4.8-3.5 8-9.1 8h-9.5zm9.3 10c1.4 0 2.6-1.2 2.6-2.6s-1.2-2.6-2.6-2.6h-3.7v5.2zm-.1 11.1c2.4 0 3.9-1 3.9-3.3s-1.4-3.3-3.9-3.3h-3.6v6.6zM153.4 328.5h-13.7c.1 2.4 2.1 4.2 4.4 4.2 1.9.2 3.6-1 4.2-2.8h5c-.9 4.5-4.2 7.1-9.2 7.1-5.8 0-9.6-4.3-9.6-9.8-.1-5.2 4-9.6 9.2-9.8h.3c5.8 0 9.3 3.5 9.3 10.2zm-13.5-3.9h8.6c-.5-1.9-2.4-3.2-4.4-3-1.9 0-3.6 1.2-4.2 3M155.1 330.5h5.3c-.1 1.1.8 2.1 1.9 2.1h.2c1.2 0 2-.6 2-1.5s-.8-1.6-2.5-2.1l-2.4-.7c-2.4-.5-4.1-2.7-4.1-5.1 0-3.4 3.1-5.6 6.9-5.6 4.3 0 6.7 2.5 6.7 5.9h-4.9c0-1-.8-1.8-1.8-1.8h-.1c-1 0-1.8.6-1.8 1.3s.7 1.3 2.1 1.7l2.7.8c2.5.7 4.2 2.4 4.2 5.1 0 3.5-2.7 6.5-7.1 6.5-4-.1-7.3-2.6-7.3-6.6M178.6 322.4v7.1c-.1 1.1.6 2.1 1.7 2.2h2.6v4.8h-3.8c-3.4 0-5.8-2.3-5.8-6.1v-8h-2.7V318h2.7v-4.7h5.2v4.7h4.3v4.3zM192.8 327.3c-.1-5.5 4.2-10.1 9.8-10.2 5.5-.1 10.1 4.2 10.2 9.8s-4.2 10.1-9.8 10.2h-.2c-5.3.3-9.7-3.8-10-9.1zm14.8 0c-.1-2.6-2.3-4.7-4.9-4.6s-4.7 2.3-4.6 4.9 2.2 4.6 4.8 4.6c2.6.1 4.7-1.9 4.8-4.5-.1-.2-.1-.3-.1-.4M221.6 317.4v.6h4.3v4.3h-4.3v14.1h-5.2v-14.1h-2.7V318h2.7v-1.2c0-4.2 2.8-6.5 6.2-6.5h3.4v4.8h-2.1c-1.1-.1-2.1.6-2.2 1.7-.2.2-.2.4-.1.6M242.9 322.4v7.1c-.1 1.1.6 2.1 1.7 2.2h2.6v4.8h-3.8c-3.4 0-5.8-2.3-5.8-6.1v-8H235V318h2.6v-4.7h5.2v4.7h4.3v4.3zM250.1 310.3h5.2v10.2c1.3-2 3.5-3.1 5.9-3 3.7 0 6.2 2.6 6.2 6.8v12.2h-5.2v-10.7c.1-1.9-1.4-3.5-3.3-3.6s-3.5 1.4-3.6 3.3v11.1h-5.2zM289 328.5h-13.7c.1 2.4 2.1 4.2 4.4 4.2 1.9.2 3.6-1 4.1-2.8h5c-.9 4.5-4.2 7.1-9.2 7.1-5.8 0-9.6-4.3-9.6-9.8-.1-5.2 4-9.6 9.2-9.8h.3c5.8 0 9.4 3.5 9.4 10.2zm-13.5-3.9h8.6c-.5-1.9-2.4-3.2-4.4-3-1.9 0-3.6 1.2-4.2 3M299.7 310.3h9.8c4.5 0 7.4 2.8 7.4 6.2.1 2.4-1.3 4.6-3.4 5.5 2.7 1 4.7 2.9 4.7 6.4 0 4.8-3.5 8-9.1 8h-9.4zm9.2 10c1.4 0 2.6-1.2 2.6-2.6s-1.2-2.6-2.6-2.6h-3.7v5.2zm-.1 11.1c2.4 0 3.9-1 3.9-3.3s-1.4-3.3-3.9-3.3h-3.6v6.6zM338.9 328.5h-13.7c.1 2.4 2.1 4.2 4.4 4.2 1.9.2 3.6-1 4.1-2.8h5c-.9 4.5-4.2 7.1-9.2 7.1-5.8 0-9.6-4.3-9.6-9.8-.1-5.2 4-9.6 9.2-9.8h.3c5.8 0 9.4 3.5 9.4 10.2zm-13.4-3.9h8.5c-.5-1.9-2.4-3.2-4.4-3-1.9 0-3.5 1.2-4.1 3M340.7 330.5h5.3c-.1 1.1.8 2.1 1.9 2.1h.2c1.2 0 2-.6 2-1.5s-.8-1.6-2.5-2.1l-2.4-.7c-2.4-.5-4.1-2.7-4.1-5.1 0-3.4 3.1-5.6 6.9-5.6 4.3 0 6.7 2.5 6.7 5.9h-4.9c0-1-.8-1.8-1.8-1.8h-.1c-1 0-1.8.6-1.8 1.3s.7 1.3 2.1 1.7l2.7.8c2.5.7 4.2 2.4 4.2 5.1 0 3.5-2.7 6.5-7.1 6.5-4.1-.1-7.3-2.6-7.3-6.6M364.1 322.4v7.1c-.1 1.1.6 2.1 1.7 2.2h2.6v4.8h-3.8c-3.4 0-5.8-2.3-5.8-6.1v-8h-2.6V318h2.6v-4.7h5.2v4.7h4.3v4.3zM241 110.7c-38.2 0-69.1 31-69.1 69.1s31 69.1 69.1 69.1 69.1-31 69.1-69.1-30.9-69.1-69.1-69.1m0 130.6c-33.9 0-61.4-27.5-61.4-61.4s27.5-61.4 61.4-61.4 61.4 27.5 61.4 61.4-27.5 61.4-61.4 61.4m-15.4-56.7c0 4.7-3.8 8.5-8.5 8.5s-8.5-3.8-8.5-8.5 3.8-8.5 8.5-8.5 8.5 3.7 8.5 8.5q0-.15 0 0m47.7 0c0 4.7-3.8 8.5-8.5 8.5s-8.5-3.8-8.5-8.5 3.8-8.5 8.5-8.5 8.5 3.8 8.5 8.5q0-.15 0 0m7.7-17.7 7.8-8.5h-17.3c-18.4-12.5-42.5-12.5-60.8 0h-17.4l7.8 8.5c-9.7 8.9-10.3 24-1.4 33.7s24 10.3 33.7 1.4l7.6 8.3 7.6-8.3c9.7 8.9 24.8 8.3 33.7-1.4 9-9.6 8.4-24.7-1.3-33.7m-63.8 33.8c-8.9 0-16.1-7.2-16.1-16.1s7.2-16.1 16.1-16.1 16.1 7.2 16.1 16.1c.1 8.9-7.2 16.1-16.1 16.1m23.8-16.6c0-10.6-7.7-19.7-17.9-23.6 11.5-4.8 24.4-4.8 35.8 0-10.2 3.9-17.9 13-17.9 23.6m23.9 16.6c-8.9 0-16.1-7.2-16.1-16.1s7.2-16.1 16.1-16.1 16.1 7.2 16.1 16.1-7.2 16.1-16.1 16.1M202.5 256.3s-8.4-6.4-23.5-8.2c-9.1-.9-18.3 1.2-26.1 6.2 0 0 10 4.1 25.4 5.7s24.2-3.7 24.2-3.7M179.1 243.1s-7.5-7.8-21.6-13.1c-8.9-3.2-18.4-3.9-27.6-2 0 0 8.6 8.2 23.6 13.9s25.6 1.2 25.6 1.2M156.7 224.7s-4.4-10.7-16.1-21.5c-7.4-6.6-16.5-11-26.3-12.7 0 0 5.3 11.6 17.7 23.1s24.7 11.1 24.7 11.1M152.3 204.1s-1.5-11.6-9.9-25c-5.4-8.3-13-14.9-22-19 0 0 2.1 12.6 11.1 26.9s20.8 17.1 20.8 17.1M152.8 176.5s-.4-11.8-7.5-26.2c-4.5-8.8-11.4-16.2-19.9-21.2 1.2 9.8 4 19.4 8.5 28.3 7.6 15.2 18.9 19.1 18.9 19.1M186.3 235.2s-3.5-8.8-13-17.7c-6-5.4-13.4-9.1-21.3-10.6 3.6 7.1 8.4 13.6 14.3 19 10 9.5 20 9.3 20 9.3M210.2 248.3c-4-3.5-8.7-6.3-13.7-8.2-5.5-2.1-11.5-2.7-17.3-1.8 4.5 3.7 9.6 6.6 15 8.7 9.4 3.7 16 1.3 16 1.3M233.3 253c-4-1.4-8.3-2-12.6-1.8-4.7.2-9.2 1.7-13.1 4.4 4.4 1.4 9.1 2 13.7 1.8 8-.3 12-4.4 12-4.4M175.9 214s-1.6-9.4-9.1-20c-4.7-6.6-11.2-11.6-18.7-14.7 2 7.7 5.5 15 10.1 21.5 7.9 11.4 17.7 13.2 17.7 13.2M166.6 185.4s1.8-9.5-1.2-22.2c-2-7.8-6.1-15-12-20.5-.8 8.1-.3 16.2 1.7 24.1 3.1 13.5 11.5 18.6 11.5 18.6M279.5 256.3s8.4-6.4 23.5-8.2c9.1-.9 18.4 1.2 26.1 6.2 0 0-10.1 4.1-25.4 5.7s-24.2-3.7-24.2-3.7M303 243.1s7.5-7.8 21.6-13.1c8.9-3.2 18.4-3.9 27.6-2 0 0-8.6 8.2-23.6 13.9s-25.6 1.2-25.6 1.2M325.4 224.7s4.4-10.7 16.1-21.5c7.4-6.6 16.5-11 26.3-12.7 0 0-5.3 11.6-17.7 23.1s-24.7 11.1-24.7 11.1M329.8 204.1s1.5-11.6 9.9-25c5.4-8.3 13-14.9 22-19 0 0-2.1 12.6-11.1 26.9s-20.8 17.1-20.8 17.1M329.2 176.5s.4-11.8 7.5-26.2c4.5-8.8 11.4-16.2 19.9-21.2 0 0-1 12.9-8.5 28.3s-18.9 19.1-18.9 19.1M295.7 235.2s3.5-8.8 13-17.7c6-5.4 13.4-9.1 21.4-10.6-3.6 7.1-8.4 13.6-14.3 19-10.1 9.5-20.1 9.3-20.1 9.3M271.9 248.3c4-3.5 8.7-6.3 13.8-8.2 5.5-2.1 11.5-2.7 17.3-1.8-4.5 3.7-9.6 6.6-15 8.7-9.6 3.7-16.1 1.3-16.1 1.3M248.7 253c4-1.4 8.3-2 12.6-1.8 4.7.2 9.2 1.7 13.1 4.4-4.4 1.4-9 2-13.7 1.8-8-.3-12-4.4-12-4.4M306.2 214s1.6-9.4 9.1-20c4.7-6.6 11.2-11.6 18.7-14.7-2 7.7-5.5 15-10.1 21.5-8 11.4-17.7 13.2-17.7 13.2M315.5 185.4s-1.8-9.5 1.2-22.2c2-7.8 6.1-15 12-20.5.9 8.1.3 16.2-1.7 24.1-3.2 13.5-11.5 18.6-11.5 18.6"/>
	<circle cx="241" cy="256.4" r="3.8"/>
	<path d="M166.6 34h-9v26.5h-7V34h-9v-6.4h24.9z"/>
	<path d="M178.9 37.3v6.2h-3.5c-2.5 0-3.8 1.2-3.8 3.8v13.2H165V37.3h6.1v4.3c.2-2.5 2.3-4.4 4.8-4.3zM179.6 48.9c0-6.8 4.8-12.3 11.5-12.3 2.7-.1 5.3.8 7.3 2.6v-2h6.1v23.2h-6.1v-2.8c-1.5 2-3.7 3.5-7.5 3.5-6.5.1-11.3-5.4-11.3-12.2m18.8 0c0-3.4-2.8-6.1-6.1-6.1-3.4 0-6.1 2.8-6.1 6.1 0 3.4 2.8 6.1 6.1 6.1 3.3.1 6-2.5 6.1-5.8zM207.1 37.3h7l3.5 12.3c.4 1.4.6 2.3.9 3.4.2-1.1.5-2 .9-3.4l3.6-12.3h7l-7.7 23.2h-7.5zM253.5 50.5h-17.2c.1 3 2.6 5.3 5.5 5.3 2.7 0 4.6-1.4 5.2-3.5h6.3c-1.1 5.7-5.3 9-11.5 9-7.3 0-12.1-5.4-12.1-12.3-.2-6.6 5-12.1 11.6-12.3h.4c7.3 0 11.8 4.5 11.8 12.8zm-16.9-5h10.8c-.6-2.3-2.5-3.8-5.5-3.8-2.4 0-4.5 1.6-5.3 3.8M256.5 27.6h6.5v32.9h-6.6zM289.5 50.5h-17.2c.1 3 2.6 5.3 5.5 5.3 2.7 0 4.6-1.4 5.2-3.5h6.3c-1.1 5.7-5.3 9-11.5 9-7.3 0-12.1-5.4-12.1-12.3-.2-6.6 5-12.1 11.6-12.3h.4c7.3 0 11.8 4.5 11.8 12.8zm-16.9-5h10.8c-.6-2.3-2.5-3.8-5.5-3.8-2.5 0-4.6 1.6-5.3 3.8M306.2 37.3v6.2h-3.5c-2.5 0-3.8 1.2-3.8 3.8v13.2h-6.6V37.3h6.1v4.3c.2-2.5 2.3-4.4 4.8-4.3zM308 52.9h6.7c-.1 1.4.9 2.5 2.2 2.7h.4c1.5 0 2.5-.8 2.5-1.9s-1-2-3.1-2.6l-3-.9c-3.1-.9-5.2-3-5.2-6.4 0-4.3 3.9-7.1 8.7-7.1 5.5 0 8.5 3.1 8.5 7.4h-6.2c0-1.2-1-2.2-2.2-2.2h-.1c-1.3 0-2.2.8-2.2 1.6 0 1.1.9 1.6 2.7 2.1l3.4.9c3.1.8 5.3 3 5.3 6.4 0 4.4-3.4 8.2-8.9 8.2-5.4.1-9.5-3.1-9.5-8.2M328.6 38.3h.6c1.6 0 3.1-.8 3.3-3.2-.3.1-.6.2-.9.2-2.2.1-4-1.7-4.1-3.9v-.2c0-2.3 1.9-4.1 4.1-4.1 3 0 4.6 2.7 4.6 6.3 0 5.7-2.8 8.4-6.7 8.4h-1zM166.1 86.3c0-10.1 7.5-17.1 16.6-17.1 8.8 0 14.4 4.9 15.6 12.7h-7.1c-1-3.8-4.1-6.2-8.6-6.2-5.3 0-9.6 4.3-9.6 10.6s4.3 10.7 9.6 10.7c4.4 0 7.5-2.3 8.6-6.2h7.2c-1.4 7.9-7.6 12.7-15.8 12.7-9.1-.1-16.5-7.1-16.5-17.2M201.3 69.9h6.6v12.8c1.6-2.5 4.4-4 7.4-3.8 4.6 0 7.9 3.2 7.9 8.6v15.3h-6.6V89.3c.1-2.4-1.7-4.4-4.1-4.5s-4.4 1.7-4.5 4.1v13.8h-6.6zM225.7 91.2c0-6.8 5-12.3 12.5-12.3s12.6 5.4 12.6 12.3-5 12.3-12.6 12.3-12.5-5.5-12.5-12.3m18.5 0c-.1-3.3-2.8-5.9-6.1-5.8s-5.9 2.8-5.8 6.1 2.7 5.8 6 5.8c3.2.1 5.9-2.4 6-5.6-.1-.2-.1-.4-.1-.5M252.4 72.5c0-2.3 1.8-4.1 4.1-4.1s4.1 1.8 4.1 4.1-1.8 4.1-4.1 4.1c-2.2 0-4.1-1.8-4.1-4.1m.9 7.1h6.6v23.2h-6.6zM262.4 91.2c-.2-6.6 4.9-12.1 11.5-12.3h.7c7.3 0 11.3 3.9 12 9.3h-6.9c-.7-1.9-2.3-3.2-5.1-3.2-3.4.2-6 3.2-5.7 6.6.2 3.1 2.7 5.5 5.7 5.7 2.8 0 4.4-1.2 5.1-3.2h6.9c-1.1 5.7-4.9 9.3-12 9.3-6.6.2-12.1-5-12.3-11.5.1-.2.1-.5.1-.7M311.6 92.7h-17.2c.1 3 2.6 5.3 5.6 5.3 2.7 0 4.6-1.4 5.2-3.5h6.3c-1.1 5.7-5.3 9-11.5 9-7.3 0-12.1-5.4-12.1-12.3-.2-6.6 5-12.1 11.6-12.3h.4c7.3 0 11.7 4.5 11.7 12.8zm-16.9-4.9h10.8c-.7-2.3-2.5-3.8-5.5-3.8-2.4 0-4.6 1.5-5.3 3.8M309.4 70.7h4.5v1h-1.7v5.2h-1.1v-5.2h-1.7zM317.8 75.3l-1.7-4.6h-1.3v6.2h1v-3.4c0-.3 0-.6-.1-.9l1.6 4.4h.8l1.6-4.4v4.3h1v-6.2h-1.3z"/>
	<path d="M211.8 292.6h-23.5v-4.2l12.4-10.5c1.9-1.6 2.9-3.2 2.9-4.8 0-1-.3-1.8-1-2.3-.7-.6-1.6-.8-2.8-.8s-2.2.3-2.8.9c-.7.6-1 1.5-1.1 2.6h-7.5q0-4.2 3-6.9c2-1.8 4.9-2.6 8.6-2.6q5.25 0 8.4 2.4c2.1 1.6 3.2 3.7 3.2 6.4 0 1.7-.5 3.4-1.6 4.9s-2.5 3-4.2 4.4l-5.7 4.7h11.8v5.8zM232.9 292.2c-1.7.6-3.7 1-5.8 1s-4-.3-5.8-1c-1.7-.6-3.3-1.6-4.5-2.8-1.3-1.2-2.3-2.7-3-4.6s-1.1-4-1.1-6.3.4-4.4 1.1-6.3 1.7-3.4 3-4.6 2.8-2.1 4.5-2.8c1.7-.6 3.7-1 5.8-1s4 .3 5.8 1c1.7.6 3.3 1.6 4.5 2.8 1.3 1.2 2.3 2.7 3 4.6s1.1 4 1.1 6.3-.4 4.4-1.1 6.3-1.7 3.4-3 4.6-2.8 2.1-4.5 2.8m-10.4-7.3c1.2 1.5 2.7 2.2 4.6 2.2 1.8 0 3.3-.7 4.6-2.2 1.2-1.5 1.8-3.6 1.8-6.4s-.6-4.9-1.8-6.4-2.7-2.2-4.6-2.2-3.4.7-4.6 2.2-1.8 3.6-1.8 6.4.6 4.9 1.8 6.4M265.9 292.6h-23.5v-4.2l12.4-10.5c1.9-1.6 2.9-3.2 2.9-4.8 0-1-.3-1.8-1-2.3-.7-.6-1.6-.8-2.8-.8s-2.2.3-2.8.9c-.7.6-1 1.5-1.1 2.6h-7.5q0-4.2 3-6.9c2-1.8 4.9-2.6 8.6-2.6q5.25 0 8.4 2.4c2.1 1.6 3.2 3.7 3.2 6.4 0 1.7-.5 3.4-1.6 4.9s-2.5 3-4.2 4.4l-5.7 4.7H266v5.8zM289.7 298.4h-7.9v-8H267v-5.2l13.9-20.4h8.8v19.9h4.1v5.7h-4.1zm-7.8-24.4-7 10.7h6.8v-7.5c0-.8.1-1.9.2-3.2" class="st0"/>
</svg>